<?xml version="1.0" encoding="UTF-8"?>
<svg width="116px" height="55px" viewBox="0 0 116 55" version="1.1" xmlns="http://www.w3.org/2000/svg" xmlns:xlink="http://www.w3.org/1999/xlink">
    <!-- Generator: Sketch 51.3 (57544) - http://www.bohemiancoding.com/sketch -->
    <title>Artboard</title>
    <desc>Created with Sketch.</desc>
    <defs></defs>
    <g id="Artboard" stroke="none" stroke-width="1" fill="none" fill-rule="evenodd">
        <g id="logo_eyecare" fill-rule="nonzero">
            <g id="Shape">
                <g id="Group">
                    <g id="Shape">
                        <path d="M86.2,14.4 L96.2,12 C85.7,2.8 70.8,1.1 62.4,1.1 C34.3,1.1 9,17.4 0.5,23.3 C11.5,16.4 37.8,5.3 55,5.4 C67.7,5.5 79.5,6.9 86.2,14.4 Z" fill="#231F20"></path>
                        <path d="M86.1,13.3 L96.1,10.9 C85.6,1.7 70.7,0 62.3,0 C34.2,0 8.9,16.3 0.4,22.2 C11.4,15.3 37.7,4.2 54.9,4.3 C67.5,4.4 79.3,5.8 86.1,13.3 Z" fill="#61B4E4"></path>
                    </g>
                    <g transform="translate(19.000000, 16.000000)" id="Shape">
                        <path d="M10.3,10.4 L0.3,12.8 C10.8,22 25.7,23.7 34.1,23.7 C62.2,23.7 87.5,7.4 96,1.5 C85,8.4 58.7,19.5 41.5,19.4 C28.9,19.3 17.1,17.9 10.3,10.4 Z" fill="#000000"></path>
                        <path d="M11,9.4 L1,11.8 C11.5,21 26.4,22.7 34.8,22.7 C62.9,22.7 88.2,6.4 96.7,0.5 C85.7,7.4 59.4,18.5 42.2,18.4 C29.5,18.3 17.8,16.9 11,9.4 Z" fill="#61B4E4"></path>
                    </g>
                </g>
                <g id="Group" transform="translate(32.000000, 13.000000)" fill="#003E7E">
                    <polygon id="Shape" points="0.7 0.3 4 0.3 4 6.3 9.8 0.3 13.5 0.3 7.2 6.7 14.6 13.3 10.5 13.3 4 7.1 4 13.3 0.7 13.3"></polygon>
                    <polygon id="Shape" points="15.6 0.3 19.6 0.3 24.9 10.1 30.2 0.3 34.3 0.3 34.3 13.3 31.2 13.3 31.2 4.3 26.3 13.3 23.5 13.3 18.7 4.5 18.7 13.3 15.6 13.3"></polygon>
                    <polygon id="Shape" points="36.1 0.3 39.6 0.3 47.8 10 47.8 0.3 50.9 0.3 50.9 13.3 47.1 13.3 39.1 3.9 39.1 13.3 36.1 13.3"></polygon>
                </g>
            </g>
            <g id="Shape" transform="translate(35.000000, 43.000000)" fill="#6D6E71">
                <polygon points="6.2 8.7 6.2 9.4 0.4 9.4 0.4 0.8 5.7 0.8 5.7 1.5 1.6 1.5 1.6 4.5 5.2 4.5 5.2 5.2 1.6 5.2 1.6 8.6 6.2 8.6"></polygon>
                <path d="M12.4,3.3 L9.7,9.4 C9.5,9.8 9.3,10.2 9.1,10.5 C8.9,10.8 8.7,11.1 8.4,11.3 C8.2,11.5 7.9,11.7 7.6,11.8 C7.3,11.9 6.9,11.9 6.6,11.9 L6.6,11.6 C6.9,11.5 7.1,11.4 7.3,11.3 C7.5,11.2 7.7,11 7.9,10.8 C8.1,10.6 8.3,10.3 8.4,10 C8.6,9.7 8.8,9.3 9,8.8 L6.6,3.2 L7.8,3.2 L9.6,7.5 L11.5,3.2 L12.4,3.2 L12.4,3.3 Z"></path>
                <path d="M14.4,6.4 C14.4,6.5 14.4,6.6 14.4,6.7 C14.4,6.8 14.4,7 14.5,7.1 C14.5,7.3 14.6,7.4 14.7,7.6 C14.8,7.8 14.9,7.9 15,8.1 C15.2,8.3 15.3,8.5 15.5,8.6 C15.7,8.7 15.8,8.8 16,8.8 C16.2,8.8 16.3,8.9 16.4,8.9 C16.5,8.9 16.6,8.9 16.7,8.9 C17,8.9 17.3,8.8 17.6,8.7 C17.8,8.6 18.1,8.5 18.2,8.3 C18.4,8.2 18.5,8 18.6,7.9 C18.7,7.8 18.8,7.6 18.8,7.6 C18.8,7.6 18.9,7.6 19,7.7 C19.1,7.7 19.1,7.7 19.2,7.8 C19.2,7.9 19.1,8.1 19,8.3 C18.9,8.5 18.8,8.7 18.6,9 C18.4,9.2 18.1,9.4 17.8,9.6 C17.5,9.8 17,9.8 16.5,9.8 C16.1,9.8 15.7,9.7 15.3,9.6 C14.9,9.5 14.6,9.3 14.3,9 C14,8.7 13.8,8.4 13.6,8 C13.4,7.6 13.3,7.1 13.3,6.5 C13.3,6 13.4,5.5 13.5,5.1 C13.7,4.7 13.9,4.3 14.2,4 C14.5,3.7 14.8,3.5 15.2,3.3 C15.6,3.1 16,3.1 16.4,3.1 C16.8,3.1 17.2,3.2 17.5,3.3 C17.8,3.4 18.1,3.6 18.4,3.8 C18.6,4 18.8,4.3 19,4.5 C19.1,4.8 19.2,5 19.3,5.3 C19.4,5.6 19.4,5.8 19.4,6 C19.4,6.2 19.4,6.4 19.4,6.5 L14.4,6.5 L14.4,6.4 Z M18.1,5.7 C18.1,5.3 18,5 17.9,4.7 C17.8,4.5 17.6,4.3 17.4,4.1 C17.2,4 17,3.9 16.8,3.8 C16.6,3.7 16.4,3.7 16.3,3.7 C16.1,3.7 15.9,3.7 15.7,3.8 C15.5,3.9 15.3,4 15.1,4.1 C14.9,4.3 14.8,4.5 14.6,4.7 C14.5,4.9 14.4,5.2 14.3,5.6 L18.1,5.6 L18.1,5.7 Z"></path>
                <path d="M27.8,7.5 C27.8,7.6 27.7,7.7 27.7,7.8 C27.7,7.9 27.6,8 27.5,8.2 C27.4,8.3 27.3,8.5 27.2,8.6 C27.1,8.7 26.9,8.9 26.8,9 C26.6,9.2 26.4,9.3 26.2,9.4 C26,9.5 25.8,9.6 25.6,9.6 C25.4,9.6 25.2,9.7 25,9.7 C24.8,9.7 24.7,9.7 24.5,9.7 C23.8,9.7 23.2,9.6 22.7,9.3 C22.2,9 21.7,8.7 21.4,8.3 C21.1,7.9 20.8,7.4 20.6,6.9 C20.4,6.4 20.3,5.8 20.3,5.2 C20.3,4.6 20.4,4 20.6,3.5 C20.8,2.9 21,2.5 21.4,2 C21.8,1.6 22.2,1.2 22.7,1 C23.2,0.7 23.8,0.6 24.6,0.6 C25.1,0.6 25.6,0.7 25.9,0.8 C26.3,0.9 26.6,1.1 26.8,1.3 C27,1.4 27.1,1.6 27.2,1.7 C27.3,1.8 27.4,2 27.5,2.1 C27.6,2.2 27.6,2.4 27.6,2.5 C27.6,2.6 27.7,2.7 27.7,2.8 C27.7,2.8 27.6,2.8 27.5,2.9 C27.4,2.9 27.4,3 27.3,3 C27.2,2.9 27.1,2.8 27,2.6 C26.9,2.4 26.7,2.2 26.5,2.1 C26.3,1.9 26,1.8 25.7,1.7 C25.4,1.6 25,1.5 24.6,1.5 C24.1,1.5 23.6,1.6 23.2,1.8 C22.8,2 22.5,2.3 22.2,2.6 C21.9,2.9 21.7,3.3 21.6,3.8 C21.5,4.3 21.4,4.7 21.4,5.3 C21.4,5.9 21.5,6.4 21.6,6.9 C21.8,7.4 22,7.7 22.3,8.1 C22.6,8.4 22.9,8.7 23.3,8.8 C23.7,9 24.1,9 24.5,9 C24.9,9 25.3,8.9 25.6,8.8 C25.9,8.7 26.2,8.5 26.4,8.3 C26.6,8.1 26.8,7.9 26.9,7.8 C27,7.6 27.1,7.5 27.2,7.4 C27.2,7.4 27.3,7.4 27.4,7.5 C27.7,7.4 27.8,7.4 27.8,7.5 Z"></path>
                <path d="M34.1,9.5 L33,9.5 L33,8.8 C32.8,9 32.7,9.2 32.5,9.3 C32.3,9.4 32.1,9.5 32,9.6 C31.8,9.7 31.7,9.7 31.5,9.7 C31.3,9.7 31.2,9.7 31.1,9.7 C30.7,9.7 30.4,9.6 30.1,9.5 C29.8,9.4 29.6,9.3 29.4,9.1 C29.2,8.9 29.1,8.7 29,8.5 C28.9,8.3 28.9,8 28.9,7.8 C28.9,7.5 29,7.3 29.1,7 C29.2,6.7 29.4,6.5 29.6,6.3 C29.8,6.1 30.1,5.9 30.4,5.8 C30.7,5.7 31.2,5.6 31.6,5.6 C31.7,5.6 31.8,5.6 32.1,5.6 C32.3,5.6 32.6,5.7 33,5.7 C33,5.4 33,5.2 33,5 C33,4.8 32.9,4.6 32.8,4.4 C32.8,4.4 32.7,4.3 32.7,4.2 C32.6,4.1 32.6,4.1 32.5,4 C32.3,4.1 32.2,4 32,4 C31.8,4 31.7,3.9 31.5,3.9 C31.1,3.9 30.7,4 30.4,4.2 C30.1,4.4 29.8,4.7 29.6,5 C29.6,5 29.5,5 29.4,4.9 C29.3,4.9 29.3,4.9 29.2,4.8 C29.5,3.6 30.4,3 31.7,3 C31.8,3 31.9,3 32,3 C32.1,3 32.3,3 32.5,3.1 C32.7,3.1 32.9,3.2 33.1,3.3 C33.3,3.4 33.5,3.6 33.6,3.8 C33.8,4.1 34,4.4 34,4.7 C34,5 34.1,5.4 34.1,5.7 L34.1,9.5 Z M33,6.5 C32.9,6.5 32.7,6.4 32.5,6.4 C32.3,6.4 32,6.3 31.7,6.3 C31.4,6.3 31.1,6.3 30.9,6.4 C30.7,6.5 30.5,6.6 30.4,6.7 C30.3,6.8 30.2,7 30.1,7.2 C30,7.4 30,7.5 30,7.7 C30,7.9 30,8.1 30.1,8.2 C30.2,8.4 30.3,8.5 30.4,8.6 C30.5,8.7 30.7,8.8 30.8,8.8 C31,8.9 31.1,8.9 31.3,8.9 C31.5,8.9 31.7,8.9 31.9,8.8 C32.1,8.7 32.2,8.7 32.4,8.6 C32.5,8.5 32.6,8.4 32.7,8.3 C32.8,8.2 32.9,8.1 32.9,8.1 L32.9,6.5 L33,6.5 Z"></path>
                <path d="M37.1,9.5 L36,9.5 L36,3.3 L37.1,3.3 L37.1,4.2 C37.1,4.1 37.2,4 37.3,3.9 C37.4,3.8 37.5,3.7 37.6,3.6 C37.7,3.5 37.9,3.4 38.1,3.3 C38.3,3.2 38.5,3.2 38.7,3.2 C38.9,3.2 39,3.2 39.1,3.2 C39.2,3.2 39.3,3.3 39.4,3.3 L39.4,4.3 C39.3,4.3 39.2,4.2 39,4.1 C38.8,4 38.7,4 38.4,4 C38.2,4 38,4 37.9,4.1 C37.8,4.2 37.6,4.2 37.5,4.3 C37.4,4.4 37.3,4.5 37.2,4.5 C37.1,4.6 37.1,4.6 37.1,4.7 L37.1,9.5 Z"></path>
                <path d="M41.2,6.4 C41.2,6.5 41.2,6.6 41.2,6.7 C41.2,6.8 41.2,7 41.3,7.1 C41.3,7.3 41.4,7.4 41.5,7.6 C41.6,7.8 41.7,7.9 41.8,8.1 C42,8.3 42.1,8.5 42.3,8.6 C42.5,8.7 42.6,8.8 42.8,8.8 C43,8.8 43.1,8.9 43.2,8.9 C43.3,8.9 43.4,8.9 43.5,8.9 C43.8,8.9 44.1,8.8 44.4,8.7 C44.6,8.6 44.9,8.5 45,8.3 C45.2,8.2 45.3,8 45.4,7.9 C45.5,7.8 45.6,7.6 45.6,7.6 C45.6,7.6 45.7,7.6 45.8,7.7 C45.9,7.7 45.9,7.7 46,7.8 C46,7.9 45.9,8.1 45.8,8.3 C45.7,8.5 45.6,8.7 45.4,9 C45.2,9.2 44.9,9.4 44.6,9.6 C44.3,9.8 43.8,9.8 43.3,9.8 C42.9,9.8 42.5,9.7 42.1,9.6 C41.7,9.5 41.4,9.3 41.1,9 C40.8,8.7 40.6,8.4 40.4,8 C40.2,7.6 40.1,7.1 40.1,6.5 C40.1,6 40.2,5.5 40.3,5.1 C40.5,4.7 40.7,4.3 41,4 C41.3,3.7 41.6,3.5 42,3.3 C42.4,3.1 42.8,3.1 43.2,3.1 C43.6,3.1 44,3.2 44.3,3.3 C44.6,3.4 44.9,3.6 45.2,3.8 C45.4,4 45.6,4.3 45.8,4.5 C45.9,4.8 46,5 46.1,5.3 C46.2,5.6 46.2,5.8 46.2,6 C46.2,6.2 46.2,6.4 46.2,6.5 L41.2,6.5 L41.2,6.4 Z M44.9,5.7 C44.9,5.3 44.8,5 44.7,4.7 C44.6,4.5 44.4,4.3 44.2,4.1 C44,4 43.8,3.9 43.6,3.8 C43.4,3.7 43.2,3.7 43.1,3.7 C42.9,3.7 42.7,3.7 42.5,3.8 C42.3,3.9 42.1,4 41.9,4.1 C41.7,4.3 41.6,4.5 41.4,4.7 C41.3,4.9 41.2,5.2 41.1,5.6 L44.9,5.6 L44.9,5.7 Z"></path>
            </g>
        </g>
    </g>
</svg>